<svg width="18" height="19" viewBox="0 0 18 19" fill="none" xmlns="http://www.w3.org/2000/svg">
<path d="M17.0002 8.95313L9.43581 16.5176C8.50911 17.4443 7.25224 17.9649 5.94169 17.9649C4.63113 17.9649 3.37426 17.4443 2.44756 16.5176C1.52086 15.5909 1.00024 14.334 1.00024 13.0234C1.00024 11.7129 1.52086 10.456 2.44756 9.52931L10.012 1.96488C10.6298 1.34708 11.4677 1 12.3414 1C13.2151 1 14.053 1.34708 14.6708 1.96488C15.2886 2.58268 15.6357 3.42059 15.6357 4.29429C15.6357 5.16799 15.2886 6.00591 14.6708 6.62371L7.09816 14.1881C6.94521 14.3411 6.76363 14.4624 6.56379 14.5452C6.36395 14.628 6.14976 14.6706 5.93345 14.6706C5.71715 14.6706 5.50296 14.628 5.30312 14.5452C5.10328 14.4624 4.9217 14.3411 4.76875 14.1881C4.61579 14.0352 4.49447 13.8536 4.41169 13.6538C4.32891 13.4539 4.28631 13.2397 4.28631 13.0234C4.28631 12.8071 4.32891 12.5929 4.41169 12.3931C4.49447 12.1933 4.61579 12.0117 4.76875 11.8587L11.757 4.87871" stroke="#121212" stroke-width="1.2" stroke-linecap="round" stroke-linejoin="round"/>
</svg>
