<svg width="24" height="24" viewBox="0 0 24 24" fill="none" xmlns="http://www.w3.org/2000/svg">
<circle cx="12" cy="12" r="12" fill="#F9F8FF"/>
<path d="M7.6295 16.666H16.3702C16.453 16.666 16.5332 16.6367 16.5964 16.5832C16.6596 16.5297 16.7018 16.4555 16.7155 16.3738L17.7655 10.0738C17.7739 10.0236 17.7713 9.97221 17.7578 9.92317C17.7443 9.87414 17.7203 9.82863 17.6874 9.78982C17.6545 9.751 17.6136 9.71982 17.5674 9.69844C17.5213 9.67706 17.471 9.666 17.4202 9.66602H6.5795C6.52864 9.666 6.47839 9.67706 6.43224 9.69844C6.38609 9.71982 6.34516 9.751 6.31229 9.78982C6.27942 9.82863 6.2554 9.87414 6.24191 9.92317C6.22842 9.97221 6.22578 10.0236 6.23417 10.0738L7.28417 16.3738C7.29784 16.4555 7.34004 16.5297 7.40327 16.5832C7.4665 16.6367 7.54666 16.666 7.6295 16.666Z" stroke="#9095B5"/>
<path d="M9.08337 9.66634V8.49967C9.08337 8.19026 9.20629 7.89351 9.42508 7.67472C9.64388 7.45592 9.94062 7.33301 10.25 7.33301H13.75C14.0595 7.33301 14.3562 7.45592 14.575 7.67472C14.7938 7.89351 14.9167 8.19026 14.9167 8.49967V9.66634" stroke="#9095B5"/>
</svg>
