<svg width="14" height="14" viewBox="0 0 14 14" fill="none" xmlns="http://www.w3.org/2000/svg">
<path d="M2.62938 11.6667H11.37C11.4529 11.6668 11.533 11.6374 11.5963 11.5839C11.6595 11.5304 11.7017 11.4562 11.7154 11.3745L12.7654 5.0745C12.7738 5.02434 12.7711 4.97295 12.7576 4.92391C12.7441 4.87487 12.7201 4.82936 12.6873 4.79055C12.6544 4.75174 12.6135 4.72056 12.5673 4.69918C12.5212 4.67779 12.4709 4.66673 12.42 4.66675H1.57938C1.52852 4.66673 1.47826 4.67779 1.43212 4.69918C1.38597 4.72056 1.34503 4.75174 1.31216 4.79055C1.27929 4.82936 1.25528 4.87487 1.24179 4.92391C1.22829 4.97295 1.22565 5.02434 1.23405 5.0745L2.28405 11.3745C2.29771 11.4562 2.33992 11.5304 2.40315 11.5839C2.46638 11.6374 2.54654 11.6668 2.62938 11.6667Z" stroke="#797C8E"/>
<path d="M4.08325 4.66671V3.50004C4.08325 3.19062 4.20617 2.89388 4.42496 2.67508C4.64375 2.45629 4.9405 2.33337 5.24992 2.33337H8.74992C9.05934 2.33337 9.35608 2.45629 9.57488 2.67508C9.79367 2.89388 9.91659 3.19062 9.91659 3.50004V4.66671" stroke="#797C8E"/>
</svg>
