<svg width="25" height="25" viewBox="0 0 25 25"  fill="none" xmlns="http://www.w3.org/2000/svg">
<path d="M12.5708 17.5239C13.8842 17.5239 15.1439 17.0021 16.0727 16.0734C17.0014 15.1446 17.5232 13.885 17.5232 12.5715C17.5232 11.2581 17.0014 9.99841 16.0727 9.06966C15.1439 8.14091 13.8842 7.61914 12.5708 7.61914C11.2573 7.61914 9.99768 8.14091 9.06893 9.06966C8.14018 9.99841 7.61841 11.2581 7.61841 12.5715C7.61841 13.885 8.14018 15.1446 9.06893 16.0734C9.99768 17.0021 11.2573 17.5239 12.5708 17.5239Z" stroke="#F9F8FF" stroke-width="1.2" stroke-linecap="round" stroke-linejoin="round"/>
<path d="M21.238 1.42871H3.90466C3.24793 1.42871 2.6181 1.68959 2.15373 2.15397C1.68935 2.61835 1.42847 3.24817 1.42847 3.9049V21.2382C1.42847 21.895 1.68935 22.5248 2.15373 22.9892C2.6181 23.4535 3.24793 23.7144 3.90466 23.7144H21.238C21.8947 23.7144 22.5245 23.4535 22.9889 22.9892C23.4533 22.5248 23.7142 21.895 23.7142 21.2382V3.9049C23.7142 3.24817 23.4533 2.61835 22.9889 2.15397C22.5245 1.68959 21.8947 1.42871 21.238 1.42871Z" stroke="#F9F8FF" stroke-width="1.2" stroke-linecap="round" stroke-linejoin="round"/>
</svg>
