<svg width="30" height="30" viewBox="0 0 30 30" fill="none" xmlns="http://www.w3.org/2000/svg">
<path d="M14.9995 20C16.3256 20 17.5974 19.4732 18.535 18.5355C19.4727 17.5979 19.9995 16.3261 19.9995 15C19.9995 13.6739 19.4727 12.4021 18.535 11.4645C17.5974 10.5268 16.3256 10 14.9995 10C13.6734 10 12.4017 10.5268 11.464 11.4645C10.5263 12.4021 9.99951 13.6739 9.99951 15C9.99951 16.3261 10.5263 17.5979 11.464 18.5355C12.4017 19.4732 13.6734 20 14.9995 20Z" stroke="#F9F8FF" stroke-width="1.2" stroke-linecap="round" stroke-linejoin="round"/>
<path d="M23.75 3.75H6.25C5.58696 3.75 4.95107 4.01339 4.48223 4.48223C4.01339 4.95107 3.75 5.58696 3.75 6.25V23.75C3.75 24.413 4.01339 25.0489 4.48223 25.5178C4.95107 25.9866 5.58696 26.25 6.25 26.25H23.75C24.413 26.25 25.0489 25.9866 25.5178 25.5178C25.9866 25.0489 26.25 24.413 26.25 23.75V6.25C26.25 5.58696 25.9866 4.95107 25.5178 4.48223C25.0489 4.01339 24.413 3.75 23.75 3.75Z" stroke="#F9F8FF" stroke-width="1.2" stroke-linecap="round" stroke-linejoin="round"/>
</svg>
