<svg width="24" height="24" viewBox="0 0 24 24" fill="none" xmlns="http://www.w3.org/2000/svg">
<circle cx="12" cy="12" r="12" fill="#9095B5"/>
<path d="M8 16V15.4375C8 14.3932 8.42143 13.3917 9.17157 12.6533C9.92172 11.9148 10.9391 11.5 12 11.5M12 11.5C13.0609 11.5 14.0783 11.9148 14.8284 12.6533C15.5786 13.3917 16 14.3932 16 15.4375V16M12 11.5C12.6062 11.5 13.1876 11.2629 13.6162 10.841C14.0449 10.419 14.2857 9.84674 14.2857 9.25C14.2857 8.65326 14.0449 8.08097 13.6162 7.65901C13.1876 7.23705 12.6062 7 12 7C11.3938 7 10.8124 7.23705 10.3838 7.65901C9.9551 8.08097 9.71429 8.65326 9.71429 9.25C9.71429 9.84674 9.9551 10.419 10.3838 10.841C10.8124 11.2629 11.3938 11.5 12 11.5Z" stroke="#F9F8FF" stroke-opacity="0.5" stroke-width="0.6" stroke-linecap="round" stroke-linejoin="round"/>
</svg>
