<svg width="222" height="35" viewBox="0 0 222 35" fill="none" xmlns="http://www.w3.org/2000/svg">
<path d="M62.1183 0.313823C62.1183 0.313823 62.1183 16.428 62.1183 18.5318C62.1183 22.5603 60.1491 34.8697 44.7985 34.825C37.7722 34.825 33.5206 32.2288 31.0144 29.006C28.5082 32.184 24.3013 34.6907 17.3197 34.6907C1.96917 34.6459 0 22.426 0 18.3975C0 16.2489 0 0.17953 0 0.17953H6.98159C6.98159 0.17953 7.02635 8.63946 7.0711 16.9651C7.11585 25.2908 12.6653 27.6183 17.3197 27.6631C21.7056 27.7079 26.8075 25.5593 27.4788 18.3527C27.4788 15.7118 27.4788 0.269058 27.4788 0.269058H27.5683C27.5683 0.179535 27.5683 0.17953 27.5683 0.17953H34.5947C34.5947 0.17953 34.5947 16.2937 34.5947 18.3975C34.5947 18.487 34.5947 18.5765 34.5947 18.6661C35.266 25.6936 40.4127 27.7526 44.7538 27.7974C49.4082 27.8422 54.9129 25.3803 55.0024 17.0994C55.0919 8.81851 55.0024 0.313823 55.0024 0.313823H62.1183ZM166.305 0.17953C150.82 0.134768 148.985 12.668 148.985 16.4727C148.985 18.5765 148.985 34.6907 148.985 34.6907H156.012C156.012 34.6907 155.922 26.2307 156.012 17.9051C156.101 9.62422 161.695 7.16233 167.29 7.2071C168.856 7.2071 171.094 7.2071 171.094 7.2071V0.134766C171.094 0.179527 168.05 0.17953 166.305 0.17953ZM124.102 0.17953C108.752 0.134768 106.783 12.4442 106.783 16.4727C106.783 18.5765 106.783 34.6907 106.783 34.6907H113.809C113.809 34.6907 113.719 26.2307 113.809 17.9051C113.898 9.62422 119.403 7.16233 124.058 7.2071C128.712 7.25186 134.306 9.57946 134.306 17.9051C134.351 26.2307 134.396 34.6907 134.396 34.6907H141.377C141.377 34.6907 141.377 18.6213 141.377 16.4727C141.422 12.4889 139.453 0.224291 124.102 0.17953ZM68.16 17.547C68.1153 32.9002 80.4226 34.8697 84.4504 34.8697C86.5538 34.8697 99.0401 34.8697 99.0401 34.8697V27.8422C99.0401 27.8422 94.162 27.9317 85.8825 27.8422C77.6031 27.7526 75.1416 22.247 75.1864 17.5918C75.2311 12.9366 77.5583 7.34138 85.8825 7.34138C94.2067 7.29661 99.0401 7.25186 99.0401 7.25186V0.269058C99.0401 0.269058 86.5538 0.269058 84.4504 0.269058C80.4226 0.224297 68.16 2.19381 68.16 17.547ZM79.3037 14.1451C77.6926 14.1451 76.4395 15.4432 76.4395 17.0099C76.4395 18.5765 77.7373 19.8746 79.3037 19.8746C80.8701 19.8746 82.168 18.5765 82.168 17.0099C82.168 15.4432 80.9149 14.1451 79.3037 14.1451Z" fill="#3447BC"/>
<path d="M200.453 17.0994C200.453 18.7108 199.155 19.9641 197.588 19.9641C196.022 19.9641 194.724 18.6661 194.724 17.0994C194.724 15.488 196.022 14.2346 197.588 14.2346C199.155 14.2346 200.453 15.488 200.453 17.0994ZM206.405 17.0994C206.405 15.2194 205.51 13.5185 203.854 12.3547C203.048 11.7728 201.929 11.9518 201.348 12.7575C200.766 13.5632 200.945 14.6823 201.75 15.2642C202.824 16.0251 202.824 16.8308 202.824 17.0994C202.824 17.368 202.824 18.1737 201.75 18.9346C200.945 19.5165 200.766 20.6356 201.348 21.4413C201.706 21.9336 202.243 22.1574 202.824 22.1574C203.182 22.1574 203.585 22.0232 203.899 21.7994C205.51 20.6356 206.405 18.9794 206.405 17.0994ZM206.405 8.68422C205.51 8.23661 204.436 8.63946 203.988 9.53469C203.54 10.4299 203.943 11.5042 204.838 11.9518C206.405 12.7128 208.284 14.2347 208.284 17.0994C208.284 20.0089 206.405 21.5308 204.838 22.3365C203.943 22.7841 203.585 23.8584 204.033 24.7536C204.346 25.3803 204.973 25.7384 205.644 25.7384C205.912 25.7384 206.181 25.6936 206.449 25.5593C209.94 23.8136 211.909 20.7251 211.909 17.0994C211.909 13.429 209.896 10.3404 206.405 8.68422ZM221.845 17.4575C221.8 32.8107 209.582 34.7802 205.554 34.7802C205.375 34.7802 190.428 34.7802 190.249 34.7802C186.221 34.7802 173.913 32.8107 173.958 17.4575C174.003 2.10428 186.221 0.134766 190.249 0.134766C190.428 0.134766 205.375 0.134766 205.554 0.134766C209.538 0.134766 221.845 2.10428 221.845 17.4575ZM214.774 17.4575C214.818 12.8023 212.357 7.29662 204.078 7.2071C202.153 7.2071 194.858 7.2071 191.636 7.2071C183.312 7.25186 180.985 12.8023 180.94 17.4575C180.895 22.1127 183.357 27.6184 191.636 27.7079C193.202 27.7079 197.991 27.7526 204.078 27.7079C212.402 27.6631 214.729 22.1127 214.774 17.4575Z" fill="#B7F451"/>
</svg>
