<svg xmlns="http://www.w3.org/2000/svg" viewBox="0 0 841.9 595.3" xml:space="preserve"><switch><g><path d="M353.5 326.9h7.9c-5.6 18.8-19.1 29.5-40.9 29.5-25 0-35.3-13.6-40.6-29.5l7.8-.2c5 12.5 13.1 22.3 32.9 22.3 20.9.1 28.8-10.9 32.9-22.1m-159.7-12.2h7.7v-54.2h-7.7zm-22.9-66.5h53.7v-7.6h-53.7zM557 314.7h7.6v-46.6H607v-7.6h-50zm78.1-74.2H557v7.6h115.7v-7.6zm6.8 74.2h7.7v-54.2h-7.7zm-357.5 0V270c0-21.2-12.5-30.3-27.4-30.3-13.8 0-24.8 8.1-26.4 26l-.2 48.9h7.5V269c.3-14.2 8.5-21.7 19.1-21.7 10.8 0 19.9 7.5 19.9 22.3v45h7.5zM408.5 257c-4-11.9-14-17.2-25.6-17.2-13.8 0-24.8 8-26.4 25.5l-.2 49.4h7.5v-46.2c.3-13.9 8.5-21.3 19.1-21.3 4.5 0 8.7 1.3 12.1 3.8 2.4 1.9 4.5 4.6 6.2 8.3 4 8.8 2.1 46.2 23.8 52.8l4.3-6.9c-18.3-8.1-15.2-35.5-20.8-48.2m36.1 16.5c-5.7-.9-10-2-13.2-3.4-4.7-2.1-6.9-4.9-6.9-9.4 0-8.8 10.5-13.4 19.5-13.3h1v-7.6h-1.8c-18.2 0-26.5 10.1-26.4 21 0 2.2.4 4.2 1 5.9 1.5 4.3 4.6 7.4 8.9 9.5 4.5 2.3 10.2 3.7 16.5 4.9 14.5 2.6 20.8 4.9 20.8 12.8 0 10.5-11.6 14-19.5 14h-1.4l-4.8 7.6h6.4c13.7 0 27-7.3 27-21.6 0-14.5-13.6-18.1-27.1-20.4m103.5 4.1c0 20.9-15 37.8-35.9 37.8s-36-16.9-36-37.8 15.1-37.8 36-37.8 35.9 16.9 35.9 37.8m-7.8 0c0-16.7-11.4-30.3-28.1-30.3S484 260.9 484 277.6s11.4 30.3 28.2 30.3c16.7 0 28.1-13.6 28.1-30.3m-228.1-30.1h7.6c9.5 0 15.5 7.1 15.5 15.5s-4.3 15.8-19.1 16l20.1 35.8h8.9l-16.9-30c9-3.3 15.1-12 15.1-21.7 0-12.7-9.4-23.2-23.6-23.2H293v7.7h19.2z" style="fill:#675dc6"/></g></switch></svg>