<svg width="111" height="17" viewBox="0 0 111 17" fill="none" xmlns="http://www.w3.org/2000/svg">
<path d="M31.4073 0.152278C31.4073 0.152278 31.4073 7.97915 31.4073 9.00099C31.4073 10.9577 30.4266 16.9366 22.7819 16.9148C19.2827 16.9148 17.1653 15.6538 15.9172 14.0885C14.6691 15.6321 12.574 16.8496 9.0971 16.8496C1.45235 16.8279 0.47168 10.8925 0.47168 8.93577C0.47168 7.89219 0.47168 0.0870503 0.47168 0.0870503H3.9486C3.9486 0.0870503 3.97088 4.19616 3.99317 8.24004C4.01546 12.2839 6.77916 13.4145 9.0971 13.4362C11.2813 13.458 13.8221 12.4144 14.1565 8.91403C14.1565 7.63129 14.1565 0.130536 14.1565 0.130536H14.201C14.201 0.0870529 14.201 0.0870503 14.201 0.0870503H17.7002C17.7002 0.0870503 17.7002 7.91393 17.7002 8.93577C17.7002 8.97925 17.7002 9.02274 17.7002 9.06622C18.0346 12.4796 20.5977 13.4797 22.7596 13.5014C25.0775 13.5232 27.8189 12.3274 27.8635 8.30527C27.9081 4.28313 27.8635 0.152278 27.8635 0.152278H31.4073ZM83.2935 0.0870503C75.5819 0.0653089 74.6681 6.15288 74.6681 8.00089C74.6681 9.02273 74.6681 16.8496 74.6681 16.8496H78.1673C78.1673 16.8496 78.1228 12.7405 78.1673 8.69661C78.2119 4.67447 80.9979 3.4787 83.7839 3.50044C84.564 3.50044 85.6784 3.50044 85.6784 3.50044V0.0653076C85.6784 0.0870489 84.1628 0.0870503 83.2935 0.0870503ZM62.2761 0.0870503C54.6313 0.0653089 53.6506 6.04417 53.6506 8.00089C53.6506 9.02273 53.6506 16.8496 53.6506 16.8496H57.1498C57.1498 16.8496 57.1053 12.7405 57.1498 8.69661C57.1944 4.67447 59.9358 3.4787 62.2538 3.50044C64.5717 3.52218 67.3577 4.65273 67.3577 8.69661C67.38 12.7405 67.4023 16.8496 67.4023 16.8496H70.8792C70.8792 16.8496 70.8792 9.04447 70.8792 8.00089C70.9015 6.06591 69.9208 0.108792 62.2761 0.0870503ZM34.4162 8.52269C34.3939 15.98 40.5231 16.9366 42.529 16.9366C43.5765 16.9366 49.7948 16.9366 49.7948 16.9366V13.5232C49.7948 13.5232 47.3654 13.5667 43.2422 13.5232C39.1189 13.4797 37.8931 10.8055 37.9154 8.54442C37.9377 6.28332 39.0966 3.56566 43.2422 3.56566C47.3877 3.54392 49.7948 3.52218 49.7948 3.52218V0.130536C49.7948 0.130536 43.5765 0.130536 42.529 0.130536C40.5231 0.108794 34.4162 1.06541 34.4162 8.52269ZM39.9659 6.87034C39.1635 6.87034 38.5394 7.50084 38.5394 8.26179C38.5394 9.02273 39.1858 9.65323 39.9659 9.65323C40.7459 9.65323 41.3923 9.02273 41.3923 8.26179C41.3923 7.50084 40.7682 6.87034 39.9659 6.87034Z" fill="#3447BC"/>
<path d="M100.299 8.30527C100.299 9.08796 99.6531 9.69671 98.873 9.69671C98.093 9.69671 97.4466 9.06622 97.4466 8.30527C97.4466 7.52258 98.093 6.91382 98.873 6.91382C99.6531 6.91382 100.299 7.52258 100.299 8.30527ZM103.264 8.30527C103.264 7.39214 102.818 6.56597 101.993 6.00069C101.592 5.71805 101.035 5.80502 100.745 6.19636C100.455 6.58771 100.545 7.13124 100.946 7.41388C101.481 7.78348 101.481 8.17482 101.481 8.30527C101.481 8.43572 101.481 8.82706 100.946 9.19666C100.545 9.4793 100.455 10.0228 100.745 10.4142C100.924 10.6533 101.191 10.762 101.481 10.762C101.659 10.762 101.86 10.6968 102.016 10.5881C102.818 10.0228 103.264 9.21841 103.264 8.30527ZM103.264 4.2179C102.818 4.00049 102.283 4.19616 102.06 4.63098C101.837 5.06581 102.038 5.58761 102.484 5.80502C103.264 6.17462 104.2 6.91383 104.2 8.30527C104.2 9.71846 103.264 10.4577 102.484 10.849C102.038 11.0664 101.86 11.5882 102.083 12.023C102.239 12.3274 102.551 12.5013 102.885 12.5013C103.019 12.5013 103.152 12.4796 103.286 12.4144C105.025 11.5665 106.005 10.0663 106.005 8.30527C106.005 6.52248 105.002 5.02233 103.264 4.2179ZM110.953 8.4792C110.931 15.9365 104.846 16.8931 102.84 16.8931C102.751 16.8931 95.307 16.8931 95.2178 16.8931C93.2119 16.8931 87.0828 15.9365 87.105 8.4792C87.1273 1.02193 93.2119 0.0653076 95.2178 0.0653076C95.307 0.0653076 102.751 0.0653076 102.84 0.0653076C104.824 0.0653076 110.953 1.02193 110.953 8.4792ZM107.432 8.4792C107.454 6.2181 106.228 3.54392 102.105 3.50044C101.146 3.50044 97.5135 3.50044 95.9088 3.50044C91.7632 3.52218 90.6042 6.2181 90.5819 8.4792C90.5597 10.7403 91.7855 13.4145 95.9088 13.458C96.6888 13.458 99.0736 13.4797 102.105 13.458C106.25 13.4362 107.409 10.7403 107.432 8.4792Z" fill="#B7F451"/>
</svg>
